# xmcd CD database file
#
# Track frame offsets:
#	182
#	34682
#	56422
#	89947
#	124290
#	144525
#	169900
#	189085
#	209965
#	231025
#	245417
#
# Disc length: 3525 seconds
#
# Revision: 2
# Processed by: cddbd v1.4PL0 Copyright (c) Steve Scherf et al.
# Submitted via: CDex 1.51
#
DISCID=a30dc30b
DTITLE=Slam Stewart and Major Holley - Two Big Mice
DYEAR=1977
DGENRE=Jazz
TTITLE0=Slam Mule
TTITLE1=What Is This Thing Called Love
TTITLE2=Three Blind Mice
TTITLE3=Ah Nice O Pays Des Merveilles
TTITLE4=Ethel's Oldest Boy
TTITLE5=Mama Don't Allow No Bass Playing Here
TTITLE6=Excuse Me Ludwig
TTITLE7=Blue Skies
TTITLE8=Salty Mama Cassoulet
TTITLE9=Lush Life
TTITLE10=Lamb Stew For Slam
EXTD=YEAR: 1977
EXTT0=
EXTT1=
EXTT2=
EXTT3=
EXTT4=
EXTT5=
EXTT6=
EXTT7=
EXTT8=
EXTT9=
EXTT10=
PLAYORDER=
